<svg xmlns="http://www.w3.org/2000/svg" xmlns:xlink="http://www.w3.org/1999/xlink" xmlns:xodm="http://www.corel.com/coreldraw/odm/2003" xml:space="preserve" width="1.09068in" height="0.898248in" version="1.1" style="shape-rendering:geometricPrecision; text-rendering:geometricPrecision; image-rendering:optimizeQuality; fill-rule:evenodd; clip-rule:evenodd" viewBox="0 0 211.44 174.13" transform="matrix(1, 0, 0, 1, 0, 0)">
 <defs fill="#66d007">
  <style type="text/css">
   <![CDATA[
    .fil0 {fill:#11e775;fill-rule:nonzero}
   ]]>
  </style>
 </defs>
 <g id="Layer_x0020_1">
  <metadata id="CorelCorpID_0Corel-Layer" fill="#66d007"/>
  <g id="_2325819692416">
   <path class="fil0" d="M1.06 2.04l25.3 0c6.84,0 12.12,0.53 15.79,1.61 3.69,1.08 6.46,2.63 8.29,4.64 1.85,2.04 3.12,4.5 3.77,7.38 0.65,2.89 0.98,7.35 0.98,13.41l0 8.41c0,6.17 -0.63,10.67 -1.9,13.49 -1.28,2.83 -3.63,4.99 -7.03,6.52 -3.4,1.51 -7.85,2.26 -13.32,2.26l-6.74 0 0 38.9 -25.14 0 0 -96.61 -0.01 0 0 -0.01zm25.14 16.52l0 24.59c0.71,0.04 1.32,0.06 1.83,0.06 2.32,0 3.91,-0.57 4.81,-1.69 0.89,-1.14 1.34,-3.5 1.34,-7.07l0 -7.94c0,-3.3 -0.51,-5.46 -1.55,-6.44 -1.04,-1 -3.18,-1.51 -6.44,-1.51l0 0 0 -0.01zm89.44 12.71l-23.33 0 0 -7.15c0,-3.34 -0.3,-5.48 -0.89,-6.4 -0.59,-0.92 -1.59,-1.36 -3,-1.36 -1.51,0 -2.65,0.61 -3.42,1.85 -0.77,1.22 -1.16,3.09 -1.16,5.61 0,3.22 0.43,5.66 1.3,7.29 0.84,1.63 3.22,3.59 7.11,5.91 11.18,6.64 18.21,12.08 21.12,16.33 2.91,4.26 4.36,11.12 4.36,20.59 0,6.88 -0.81,11.96 -2.42,15.22 -1.61,3.26 -4.73,6.01 -9.33,8.21 -4.62,2.2 -9.98,3.32 -16.11,3.32 -6.72,0 -12.47,-1.28 -17.21,-3.83 -4.77,-2.55 -7.88,-5.78 -9.35,-9.72 -1.47,-3.95 -2.2,-9.53 -2.2,-16.78l0 -6.32 23.33 0 0 11.76c0,3.63 0.32,5.95 0.97,6.99 0.67,1.02 1.83,1.55 3.5,1.55 1.67,0 2.91,-0.65 3.73,-1.98 0.81,-1.3 1.22,-3.26 1.22,-5.85 0,-5.69 -0.77,-9.41 -2.32,-11.16 -1.59,-1.75 -5.52,-4.67 -11.76,-8.76 -6.25,-4.15 -10.39,-7.15 -12.43,-9.02 -2.02,-1.87 -3.71,-4.46 -5.03,-7.76 -1.35,-3.3 -1.99,-7.52 -1.99,-12.65 0,-7.39 0.93,-12.81 2.83,-16.24 1.87,-3.42 4.93,-6.09 9.15,-8.02 4.22,-1.91 9.31,-2.89 15.28,-2.89 6.54,0 12.1,1.06 16.68,3.16 4.6,2.12 7.64,4.77 9.15,7.98 1.48,3.2 2.22,8.64 2.22,16.32l0 3.81 0 0 0.01 -0.01zm35.12 -29.23l0 96.61 -25.14 0 0 -96.61 25.14 0zm60.68 0l0 19.33 -14.91 0 0 77.28 -25.12 0 0 -77.28 -14.87 0 0 -19.33 54.9 0zm-142.55 117.36c0.32,0.32 0.48,0.59 0.48,0.8 0,0.26 -0.34,0.81 -1.02,1.66 -1.79,2.2 -4.41,5.02 -7.89,8.44 -3.32,3.28 -5.58,5.32 -6.76,6.11 1.47,2.09 2.95,4.2 4.43,6.31 2.25,3.18 4.21,5.32 5.84,6.41 0.72,0.48 1.35,0.73 1.92,0.73 0.57,0 1.24,-0.28 2,-0.83 0.15,-0.11 0.32,-0.17 0.46,-0.17 0.34,0 0.52,0.17 0.52,0.5 0,0.2 -0.07,0.4 -0.22,0.61 -0.48,0.76 -1.55,1.88 -3.18,3.34 -0.37,0.34 -0.74,0.5 -1.09,0.5 -0.42,0 -0.91,-0.22 -1.44,-0.66 -1.99,-1.59 -4.24,-4.13 -6.72,-7.62 -2.59,-3.65 -4.4,-5.91 -5.4,-6.79 -0.52,0.21 -0.93,0.32 -1.24,0.32 -0.57,0 -0.89,-0.42 -0.96,-1.27 -0.02,-0.26 -0.02,-0.48 -0.02,-0.66 0,-0.68 0.18,-1.18 0.55,-1.5 0.37,-0.32 1.11,-0.6 2.22,-0.84 0.41,-0.09 0.72,0.02 0.93,0.32 1.91,-1.48 4.08,-3.47 6.5,-5.97 2.38,-2.44 3.83,-4.17 4.33,-5.16 -1.03,-0.6 -1.53,-1.09 -1.53,-1.48 0,-0.31 0.29,-0.53 0.87,-0.66 0.81,-0.57 1.78,-1.49 2.9,-2.76 0.48,-0.53 0.97,-0.8 1.51,-0.8 0.61,0 1.29,0.37 2.02,1.09l0.01 0 -0.01 0.01zm-14.35 1.94c-2.04,3.67 -4.01,7.98 -5.89,12.93 -1.62,4.23 -2.9,8.36 -3.85,12.36 -0.63,2.69 -0.92,4.37 -0.85,5.04 0.1,0.26 0.14,0.5 0.14,0.71 0,0.34 -0.13,0.52 -0.41,0.52 -0.34,0 -0.9,-0.29 -1.66,-0.88 -0.84,-0.63 -1.27,-1.15 -1.27,-1.55 0,-0.26 0.07,-0.64 0.22,-1.15 1.34,-4.68 2.99,-9.66 4.97,-14.9 1.3,-3.24 2.7,-6.78 4.24,-10.61 -4.64,1.14 -7.96,2.5 -9.96,4.09 -0.73,0.56 -1.09,1.11 -1.09,1.63 0,0.36 0.16,1.31 0.48,2.85 0.11,0.51 -0.06,0.76 -0.53,0.76 -0.32,0 -0.57,-0.16 -0.76,-0.46 -0.55,-0.87 -1.12,-2.14 -1.7,-3.82 -0.11,-0.37 -0.17,-0.72 -0.17,-1.02 0,-1.22 0.95,-2.2 2.83,-2.96 0.66,-0.27 4.03,-1.42 10.08,-3.4 1.43,-0.48 2.4,-1.03 2.92,-1.68 0.37,-0.45 0.7,-0.68 0.97,-0.68 0.26,0 0.58,0.14 0.97,0.43 0.46,0.32 0.68,0.61 0.68,0.83 0,0.21 -0.13,0.54 -0.37,1l0 0 -0.01 0zm33.18 14.61c-1.5,4.14 -2.53,7.61 -3.09,10.42 0.24,-0.24 0.56,-0.58 0.96,-1.05 0.4,-0.48 0.64,-0.75 0.74,-0.83 0.22,-0.29 0.47,-0.44 0.73,-0.44 0.24,0 0.37,0.13 0.37,0.37 0,0.15 -0.06,0.32 -0.2,0.52 -1.52,2.25 -2.53,4.54 -3.04,6.84 -0.14,0.65 -0.37,0.97 -0.66,0.97 -0.27,0 -0.79,-0.26 -1.53,-0.77 -0.44,-0.3 -0.69,-0.54 -0.76,-0.73 -0.09,-0.18 -0.09,-0.54 0,-1.07 0.68,-4.12 1.53,-7.54 2.55,-10.28 -1.42,2.29 -3.33,4.83 -5.77,7.59 -2.13,2.42 -3.66,3.97 -4.6,4.63 -0.68,0.48 -1.2,0.71 -1.55,0.71 -0.29,0 -0.74,-0.24 -1.34,-0.71 -0.87,-0.52 -1.3,-1.23 -1.3,-2.14 0,-0.17 0.02,-0.38 0.05,-0.61 0.29,-2.4 1.35,-5.19 3.16,-8.38 1.82,-3.19 3.91,-5.89 6.26,-8.07 0.76,-0.72 1.44,-1.07 2.05,-1.05 0.58,0.03 1.7,0.8 3.34,2.31 0.14,0.13 0.22,0.26 0.22,0.41 0,0.26 -0.17,0.39 -0.52,0.39 -0.13,0 -0.25,-0.02 -0.37,-0.07 -1.15,-0.49 -2.08,-0.48 -2.77,0.05 -1.52,1.11 -3.2,3.09 -5.06,5.91 -2.14,3.24 -3.43,6.17 -3.87,8.76 -0.02,0.11 -0.02,0.22 -0.02,0.32 0,0.41 0.17,0.61 0.49,0.61 0.55,0 1.2,-0.38 1.97,-1.15 1.82,-1.77 3.77,-3.99 5.84,-6.67 2.13,-2.77 3.49,-4.87 4.1,-6.28 0.43,-1.04 0.72,-1.77 0.85,-2.18 0.21,-0.73 0.44,-1.09 0.68,-1.09 0.24,0 0.81,0.33 1.7,1 0.37,0.27 0.58,0.52 0.61,0.76 0.03,0.19 -0.03,0.53 -0.22,1.02l0.01 0 -0.01 0.01zm20.91 7.54c-0.97,1.48 -2.24,3.62 -3.8,6.42 -0.29,0.73 -0.58,1.46 -0.86,2.2 -0.22,0.51 -0.52,0.76 -0.9,0.76 -0.29,0 -0.72,-0.13 -1.3,-0.37 -0.63,-0.26 -0.95,-0.52 -0.95,-0.78 0,-0.11 0.11,-0.37 0.32,-0.76 1.05,-2.14 2,-4.81 2.83,-8 0.9,-3.36 1.27,-5.93 1.15,-7.69 -0.03,-0.72 -0.2,-1.07 -0.49,-1.07 -0.21,0 -0.52,0.2 -0.95,0.61 -4.09,3.99 -7.63,9.33 -10.61,16.03 -0.37,0.82 -0.81,1.24 -1.32,1.24 -0.36,0 -0.95,-0.2 -1.77,-0.61 -0.33,-0.15 -0.5,-0.28 -0.52,-0.42 0,-0.06 0.09,-0.29 0.26,-0.68 0.95,-2.06 1.88,-4.67 2.8,-7.83 0.99,-3.42 1.55,-6.1 1.68,-8.01 0.03,-0.58 0.02,-0.88 -0.05,-0.88 -0.02,0 -0.24,0.22 -0.68,0.66 -0.43,0.43 -1.05,1.01 -1.82,1.7 -0.15,0.14 -0.31,0.22 -0.49,0.22 -0.22,0 -0.34,-0.09 -0.34,-0.26 0,-0.13 0.09,-0.27 0.24,-0.44 0.7,-0.89 1.62,-2 2.75,-3.33 0.25,-0.27 0.5,-0.41 0.76,-0.41 0.39,0 0.73,0.28 1.02,0.85 1.32,0.39 1.94,1 1.85,1.81 -0.18,1.79 -1.09,5.01 -2.75,9.66 1.09,-2.1 2.67,-4.43 4.75,-7.02 2.08,-2.59 3.62,-4.12 4.63,-4.59 0.5,-0.22 0.85,-0.34 1.07,-0.34 0.21,0 0.55,0.17 1.02,0.53 1.35,0.48 2.01,1.26 1.99,2.34 0,1.13 -0.27,2.96 -0.83,5.47 -0.43,2.07 -0.84,3.69 -1.22,4.84 0.48,-0.61 1.07,-1.38 1.81,-2.34 0.13,-0.15 0.26,-0.24 0.39,-0.24 0.24,0 0.37,0.15 0.37,0.46 0,0.1 -0.02,0.19 -0.05,0.29l0.01 0 0.03 -0.01zm21.13 -6.33c-0.19,2.75 -0.92,5.69 -2.17,8.84 -1.16,2.93 -2.32,4.95 -3.46,6.01 -0.65,0.61 -1.31,0.91 -1.97,0.91 -0.75,0 -1.99,-0.6 -3.72,-1.81 -0.34,-0.22 -0.52,-0.46 -0.52,-0.71 0,-0.31 0.22,-0.46 0.66,-0.46 0.18,0 0.44,0.06 0.78,0.17 0.34,0.11 0.61,0.17 0.83,0.17 1.18,0 2.24,-0.74 3.19,-2.26 0.79,-1.3 1.55,-3.04 2.26,-5.24 0.87,-2.73 1.23,-5.07 1.12,-7.04 -0.05,-0.94 -0.37,-1.42 -0.95,-1.42 -0.52,0 -1.16,0.36 -1.9,1.07 -5.26,5.03 -8.96,11.04 -11.1,18.04 -1.22,3.98 -2.03,7.66 -2.44,11.05 -0.02,0.11 -0.24,2.93 -0.66,8.45 -0.07,0.8 -0.26,1.2 -0.58,1.2 -0.34,0 -0.96,-0.4 -1.83,-1.2 -0.63,-0.58 -0.88,-1.3 -0.73,-2.14 0.72,-8.09 2.67,-17.09 5.87,-27 2.52,-7.75 4.51,-12.79 5.99,-15.09 0.87,-1.35 1.66,-2.01 2.33,-1.98 0.68,0.02 1.98,0.63 3.9,1.83 0.26,0.17 0.39,0.33 0.39,0.52 0,0.24 -0.2,0.37 -0.59,0.37 -0.09,0 -0.26,-0.02 -0.48,-0.06 -0.24,-0.04 -0.4,-0.06 -0.52,-0.06 -1.02,0 -2.09,0.87 -3.19,2.6 -0.65,1 -1.46,2.66 -2.45,4.99 -1,2.33 -1.71,4.26 -2.14,5.77 2.38,-3.89 5.16,-7.24 8.33,-10.03 0.48,-0.41 0.92,-0.63 1.31,-0.63 0.17,0 0.63,0.24 1.34,0.73 2.21,0.78 3.24,2.25 3.09,4.4l-0.01 0 0.01 0.01zm20.45 -2.65c-2.15,4.01 -3.77,8.72 -4.84,14.12 0.46,-0.8 1.01,-1.81 1.66,-3.04 0.07,-0.22 0.21,-0.34 0.38,-0.34 0.25,0 0.37,0.15 0.37,0.46 0,0.09 -0.02,0.2 -0.06,0.32 -1.04,2.37 -1.72,4.2 -2.05,5.47 -0.2,0.81 -0.45,1.22 -0.78,1.22 -0.32,0 -0.96,-0.32 -1.9,-0.95 -0.5,-0.36 -0.67,-0.99 -0.5,-1.9 0.68,-3.54 1.5,-6.61 2.46,-9.23 -3.14,5.1 -5.77,8.85 -7.89,11.28 -0.46,0.53 -0.98,0.8 -1.53,0.8 -0.45,0 -0.99,-0.18 -1.61,-0.56 -1.12,-0.19 -1.69,-0.78 -1.69,-1.75 0,-0.17 0.02,-0.37 0.05,-0.58 0.41,-4.64 1.26,-8.5 2.53,-11.57 -0.27,0.26 -0.69,0.64 -1.24,1.15 -0.22,0.17 -0.37,0.22 -0.49,0.14 -0.13,-0.09 -0.11,-0.28 0.07,-0.56 0.87,-1.28 1.4,-2.13 1.55,-2.53 0.5,-1.26 1.03,-2.24 1.59,-2.94 0.29,-0.36 0.6,-0.54 0.92,-0.54 0.44,0 1.08,0.26 1.92,0.78 0.24,0.15 0.34,0.29 0.34,0.44 0,0 -0.17,0.26 -0.53,0.81 -0.81,1.23 -1.67,3.4 -2.59,6.52 -0.99,3.38 -1.48,6.13 -1.5,8.25 0,0.7 0.14,1.05 0.44,1.05 0.26,0 0.68,-0.3 1.27,-0.91 1.24,-1.33 3.06,-3.84 5.43,-7.55 2.09,-3.26 3.36,-5.39 3.8,-6.37 0.73,-1.66 1.32,-2.64 1.78,-2.92 0.29,-0.19 0.55,-0.29 0.78,-0.29 0.22,0 0.66,0.17 1.31,0.5 0.65,0.35 0.97,0.6 0.97,0.76 0,0.05 -0.06,0.11 -0.17,0.2 -0.11,0.09 -0.2,0.17 -0.25,0.26l0 -0.01 -0.02 0.01zm16.61 -0.66c0,2.13 -0.29,4.15 -0.86,6.08 -0.17,0.59 -0.42,0.88 -0.73,0.88 -0.22,0 -0.73,-0.33 -1.5,-0.97 -0.39,-0.32 -0.49,-0.79 -0.3,-1.39 0.46,-1.48 0.68,-2.67 0.68,-3.56 0,-0.31 -0.06,-0.46 -0.19,-0.46 -0.19,0 -0.52,0.29 -0.95,0.88 -3.38,4.4 -5.9,9.33 -7.57,14.8 -0.54,1.74 -1,2.6 -1.36,2.6 -0.15,0 -0.79,-0.28 -1.93,-0.85 -0.55,-0.27 -0.74,-0.81 -0.56,-1.61 1.28,-5.61 2.66,-10.36 4.14,-14.21 -1.2,1.27 -1.97,2.13 -2.29,2.6 -0.13,0.19 -0.3,0.29 -0.53,0.29 -0.27,0 -0.41,-0.11 -0.41,-0.37 0,-0.14 0.06,-0.3 0.2,-0.48 0.79,-0.96 1.85,-2.42 3.18,-4.39 0.41,-0.72 0.81,-1.07 1.22,-1.07 0.29,0 0.88,0.24 1.78,0.68 0.5,0.26 0.58,0.61 0.24,1.05 -0.36,0.48 -1.03,2.14 -2.02,4.99 -0.94,2.77 -1.59,4.95 -1.95,6.52 2.21,-4.92 4.72,-9.26 7.53,-13.02 0.53,-0.72 0.96,-1.07 1.29,-1.07 0.29,0 0.69,0.19 1.2,0.58 0.68,0.09 1.11,0.19 1.29,0.32 0.27,0.2 0.42,0.59 0.42,1.17l-0.01 0.01 -0.01 -0zm-166.82 29.12l95.21 0 0 3.09 -95.21 0 0 -3.09zm122.78 0l80.49 0 0 3.09 -80.49 0 0 -3.09zm-122.78 -51.82l203.28 0 0 3.09 -203.28 0 0 -3.09z" fill="#66d007"/>
  </g>
 </g>
</svg>